<?xml version="1.0" encoding="UTF-8"?>
<svg version="1.1" xmlns="http://www.w3.org/2000/svg" width="225" height="225">
<path d="M0 0 C74.25 0 148.5 0 225 0 C225 74.25 225 148.5 225 225 C150.75 225 76.5 225 0 225 C0 150.75 0 76.5 0 0 Z " fill="#000B1D" transform="translate(0,0)"/>
<path d="M0 0 C42.1419214 0 42.1419214 0 49.3125 5.375 C50.11300781 5.96023437 50.91351563 6.54546875 51.73828125 7.1484375 C57.7606847 12.07869525 60.15125016 16.21979312 61 24 C61.59892808 34.11047646 60.58900387 41.98634665 54 50 C48.62888426 54.38661889 42.64180802 56.3282524 36 58 C35.3915625 58.18949219 34.783125 58.37898438 34.15625 58.57421875 C31.0097466 59.19553917 27.95228802 59.09215081 24.75 59.0625 C23.48671875 59.05347656 22.2234375 59.04445312 20.921875 59.03515625 C19.95765625 59.02355469 18.9934375 59.01195312 18 59 C18.00785522 60.17357056 18.00785522 60.17357056 18.01586914 61.37084961 C18.03657106 64.89305833 18.04963838 68.4152543 18.0625 71.9375 C18.07087891 73.16919922 18.07925781 74.40089844 18.08789062 75.66992188 C18.09272461 77.4246582 18.09272461 77.4246582 18.09765625 79.21484375 C18.10551147 80.84087524 18.10551147 80.84087524 18.11352539 82.49975586 C18 85 18 85 17 86 C11.39 86 5.78 86 0 86 C0 57.62 0 29.24 0 0 Z " fill="#F6F7F7" transform="translate(56,71)"/>
<path d="M0 0 C0.845625 -0.01417969 1.69125 -0.02835938 2.5625 -0.04296875 C5 0.1875 5 0.1875 9 2.1875 C9 6.8075 9 11.4275 9 16.1875 C7.411875 16.31125 5.82375 16.435 4.1875 16.5625 C0.50657469 16.84932535 -0.83759418 17.07922945 -4 19.1875 C-4.58481121 22.07345946 -4.58481121 22.07345946 -4.6875 25.3125 C-4.790625 27.25125 -4.89375 29.19 -5 31.1875 C-0.71 31.1875 3.58 31.1875 8 31.1875 C8 35.8075 8 40.4275 8 45.1875 C3.71 45.1875 -0.58 45.1875 -5 45.1875 C-5 61.3575 -5 77.5275 -5 94.1875 C-10.94 94.1875 -16.88 94.1875 -23 94.1875 C-23 78.0175 -23 61.8475 -23 45.1875 C-26.3 45.1875 -29.6 45.1875 -33 45.1875 C-33 40.5675 -33 35.9475 -33 31.1875 C-29.7 31.1875 -26.4 31.1875 -23 31.1875 C-23.04125 29.90875 -23.0825 28.63 -23.125 27.3125 C-23.05614425 18.54027784 -22.08440546 12.27461641 -15.8046875 5.8125 C-10.89876741 1.39504814 -6.48664858 0.04944092 0 0 Z " fill="#F4F4F5" transform="translate(160,62.8125)"/>
<path d="M0 0 C16.32201746 -0.58292919 16.32201746 -0.58292919 23 4 C25.98290881 8.47436322 25.59941139 12.75515032 25 18 C23.24893436 21.83887468 22.22217969 23.47338434 18.34375 25.14453125 C14.54151715 26.11729877 11.01280088 26.22217352 7.125 26.125 C4.77375 26.08375 2.4225 26.0425 0 26 C0 17.42 0 8.84 0 0 Z " fill="#010B1E" transform="translate(74,87)"/>
<path d="M0 0 C0.33 0 0.66 0 1 0 C1 9.57 1 19.14 1 29 C-9.23 29 -19.46 29 -30 29 C-27.0464745 27.52323725 -24.32652154 26.36695368 -21.25 25.25 C-11.78541003 21.43632698 -6.42044287 16.23349087 -2 7 C-1.13232259 4.65143085 -0.53327262 2.45305404 0 0 Z " fill="#F3F3F4" transform="translate(224,196)"/>
<path d="M0 0 C10.23 0 20.46 0 31 0 C31 9.57 31 19.14 31 29 C29 25 29 25 27.75 21.75 C24.6601746 14.58652421 20.41739425 9.69171303 13.5390625 6.0078125 C13.03117188 5.67523437 12.52328125 5.34265625 12 5 C12 4.34 12 3.68 12 3 C10.14375 2.814375 10.14375 2.814375 8.25 2.625 C4.79327201 2.2793272 3.31109404 1.65554702 0 0 Z " fill="#F5F5F6" transform="translate(194,0)"/>
<path d="M0 0 C1.11790736 2.23581472 2.21432326 4.48393373 3.2265625 6.76953125 C7.44108989 15.94024868 12.4604047 22.14356786 22 26 C24.32219249 26.74423208 26.63787409 27.38584726 29 28 C29 28.33 29 28.66 29 29 C19.43 29 9.86 29 0 29 C0 19.43 0 9.86 0 0 Z " fill="#F7F7F8" transform="translate(0,196)"/>
<path d="M0 0 C9.57 0 19.14 0 29 0 C26 2 26 2 22.375 3.1875 C13.64860369 6.41177511 7.15426397 12.74780106 3 21 C2.07516832 23.68960712 1.51092307 26.1899231 1 29 C0.67 29 0.34 29 0 29 C0 19.43 0 9.86 0 0 Z " fill="#F8F8F8" transform="translate(0,0)"/>
</svg>
